<svg xmlns="http://www.w3.org/2000/svg" viewBox="195 -10 280 275" width="560" height="550">

  <!-- ── Hair silhouette ── -->
  <g id="hair">
    <path
      d="m 274.27,0 h 7.5 q 18.53,1.85 32.68,8.03 c 12.49,5.46 24.03,14.94 27.55,28.42 a 2.51,2.49 89.9 0 0 1.78,1.79 c 62.05,16.11 59.99,92.38 46.77,140.06 q -2.56,9.24 -6.49,17.96 c -2.53,5.64 -4.61,7.93 -10.53,9.62 l -0.26,-0.1 q -0.2,-0.09 -0.11,-0.29 3.73,-8.25 6.16,-16.1 a 1.18,1.17 -83.3 0 1 1.03,-0.82 c 9.73,-0.81 11.84,-26.25 11.81,-33.17 q 0,-2.26 -1.89,-3.46 -0.54,-0.35 -1.17,-0.24 -2.13,0.37 -4.08,0.23 c -5.7,-0.39 -8.68,-13.45 -9.55,-17.9 q -2.57,-13.24 -5.09,-28.6 -0.65,-3.97 -2.37,-7.72 a 2.7,2.65 86.8 0 0 -1.54,-1.4 C 357.04,93.05 347.03,89.65 337,88.5 q -7.76,-0.88 -14.28,3.52 c -7.75,5.24 -15.65,10.37 -23.95,14.33 q -15.27,7.3 -31.5,12.13 a 1.86,1.85 -0.3 0 0 -1.25,1.26 c -2.08,7.3 -3.02,14.59 -4.33,22.04 -0.77,4.35 -2.6,10.1 -8.02,10.27 q -1.4,0.05 -2.82,-0.07 -0.58,-0.04 -0.95,0.42 -1.31,1.64 -1.26,3.95 0.23,12.21 3.9,23.14 c 1.3,3.87 3.66,8.51 8.11,9.16 a 1.22,1.22 0 0 1 0.99,0.84 q 5.67,17.91 15.65,33.72 0.59,0.93 0.76,2 0.62,15.66 -0.31,31.34 -0.33,0.59 -0.86,1.05 -10.81,9.38 -25.26,12.16 -3.21,-0.66 -6.4,-1 -2.96,-0.31 -6.35,-1.14 -4.1,-0.99 -8.5,-0.85 -19.12,0.63 -38.2,1.5 -7.58,0.35 -14.57,-0.86 a 1.74,1.73 -87.9 0 1 -1.44,-1.56 c -0.81,-8.45 2.45,-17.97 5.45,-25.54 7.91,-19.94 16.52,-39.52 21.72,-59.8 q 3.8,-14.84 3.36,-29.24 -0.62,-20.32 -5.16,-56.52 -0.99,-7.83 -0.58,-13.57 1.97,-27.81 13.7,-48.73 C 220.38,22.24 229.09,15.56 238.9,9.81 Q 254.97,0.39 274.27,0 Z m 61.27,35.35 c -9.93,-7.61 -23.32,-7.23 -32.78,1.35 q -1.11,1.01 0.36,0.73 c 10.93,-2.09 20.77,-2.59 31.88,-0.82 q 2.75,0.43 0.54,-1.26 z"
      fill="#595959"
    />
    <path
      d="m 302.76,36.7 c 9.46,-8.58 22.85,-8.96 32.78,-1.35 q 2.21,1.69 -0.54,1.26 c -11.11,-1.77 -20.95,-1.27 -31.88,0.82 q -1.47,0.28 -0.36,-0.73 z"
      fill="#595959"
    />
  </g>

  <!-- ── Head / skin silhouette ── -->
  <g id="head-skin">
    <path
      d="m 333.98559,84.905706 c 18.21278,1.634629 31.69605,8.136487 37.2945,12.907787 5.05164,4.305277 7.19576,45.031667 12.65256,51.693107 1.8636,2.27501 8.59028,-1.54865 8.92968,2.02054 0.963,10.12704 -1.13955,23.87461 -5.01774,34.09876 -2.76635,7.29296 -5.63968,2.08994 -7.32662,6.61326 -4.20041,11.26291 -13.37526,37.43537 -39.7435,47.10729 -18.23028,5.87857 -27.73171,4.95957 -42.38166,-0.61061 -10.53425,-7.41801 -26.32238,-15.61151 -35.48901,-45.82179 -2.15595,-7.10532 -5.07953,-2.63217 -8.24698,-7.1806 -8.2816,-11.89228 -6.24233,-24.37427 -6.11257,-33.09312 1.24002,-3.08768 8.39807,0.42491 9.86574,-4.98496 1.75809,-6.48033 5.74751,-21.52642 6.67934,-30.11758 42.80886,-10.2119 49.53647,-34.194904 68.89626,-32.632084 z"
      fill="#C49A6C"
    />
  </g>

  <!-- ── Face zone overlays (editable in Figma) ── -->
  <!-- Zones are approximate — adjust in Figma as needed -->
  <g id="face-zones" fill="none" stroke="#3f3f3f" stroke-width="0.5" stroke-opacity="0.6">

    <!-- Forehead -->
    <path id="zone-forehead"
      d="M 263 100 Q 300 88 338 88 Q 368 90 384 100 L 380 128 L 268 128 Z"
    />

    <!-- Left brow area (anatomical left = viewer's right) -->
    <path id="zone-left-brow"
      d="M 268 128 L 322 128 L 320 142 L 271 141 Z"
    />

    <!-- Right brow area -->
    <path id="zone-right-brow"
      d="M 322 128 L 380 128 L 377 141 L 322 142 Z"
    />

    <!-- Left under-eye -->
    <path id="zone-left-undereye"
      d="M 271 141 L 316 141 L 314 158 L 273 157 Z"
    />

    <!-- Right under-eye -->
    <path id="zone-right-undereye"
      d="M 328 141 L 377 141 L 376 157 L 330 158 Z"
    />

    <!-- Nose bridge + nose -->
    <path id="zone-nose"
      d="M 316 141 L 328 141 L 332 185 L 312 185 Z"
    />

    <!-- Left cheek -->
    <path id="zone-left-cheek"
      d="M 273 157 L 314 158 L 310 185 L 300 197 L 278 193 Z"
    />

    <!-- Right cheek -->
    <path id="zone-right-cheek"
      d="M 330 158 L 376 157 L 370 193 L 348 197 L 338 185 Z"
    />

    <!-- Upper lip -->
    <path id="zone-upper-lip"
      d="M 312 185 Q 324 179 332 185 L 330 196 Q 322 200 314 196 Z"
    />

    <!-- Lower lip -->
    <path id="zone-lower-lip"
      d="M 314 196 Q 322 200 330 196 L 328 207 Q 322 211 316 207 Z"
    />

    <!-- Chin -->
    <path id="zone-chin"
      d="M 300 197 Q 322 191 348 197 L 342 213 Q 322 218 302 213 Z"
    />

    <!-- Left jaw -->
    <path id="zone-left-jaw"
      d="M 273 157 L 278 193 L 300 197 L 302 213 L 278 210 L 264 190 Z"
    />

    <!-- Right jaw -->
    <path id="zone-right-jaw"
      d="M 376 157 L 384 190 L 370 210 L 346 213 L 342 213 L 348 197 L 370 193 Z"
    />

  </g>

  <!-- ── Zone labels (toggle visibility in Figma) ── -->
  <g id="zone-labels" font-family="sans-serif" font-size="7" fill="#555" text-anchor="middle">
    <text x="324" y="116">Forehead</text>
    <text x="292" y="137">L Brow</text>
    <text x="352" y="137">R Brow</text>
    <text x="291" y="152">L Eye</text>
    <text x="353" y="152">R Eye</text>
    <text x="322" y="168">Nose</text>
    <text x="290" y="175">L Cheek</text>
    <text x="357" y="175">R Cheek</text>
    <text x="322" y="193">Upper Lip</text>
    <text x="322" y="204">Lower Lip</text>
    <text x="322" y="210">Chin</text>
    <text x="270" y="192">L Jaw</text>
    <text x="376" y="192">R Jaw</text>
  </g>

</svg>
